:SAMPLES-PER-SECOND 30
:FULLY-SPECIFIED
:DEGREES
109
root  -6.39354 40.3737 -4.21726 159.757 82.6956 161.716
RightUpLeg  -10.6066 -7.28318 -6.72442
RightLeg  7.6213 3.65015 0.715275
RightFoot  15.4864 -3.4014 14.6486
RightToes  -5.8209e-011 0 -3.6325e-017
Spine  11.7623 -3.98507 -15.688
Spine1  -3.80977 -7.0219 8.97359
HEad  -13.934 35.6736 -3.11005
LeftShoulder1  0.629277 9.88576 20.858
LeftArm  -81.9259 -56.5906 -2.11502
LeftForeArm  -48.774 -44.803 -13.4754
LeftHand  -0.0277636 5.26403 20.0988
RightShoulder  0.205834 0.705929 -4.09255
RightArm  7.59036 -2.25798 37.5063
RightForeArm  36.5291 77.9612 80.086
RightHand  -0.293173 -2.36463 -10.956
LeftUpLeg  6.63694 5.91689 -1.12781
LeftLeg  13.9228 10.7481 1.70255
LeftFoot  -2.90706 0.762835 -10.0917
LeftToes  -3.91115e-011 -2.2622e-010 9.51032e-012
110
root  -6.26794 40.2929 -4.2467 154.765 82.8387 156.914
RightUpLeg  -10.6048 -7.36522 -7.24218
RightLeg  8.57031 4.61109 0.704215
RightFoot  13.7578 -3.27236 15.0541
RightToes  -5.8209e-011 0 -3.6325e-017
Spine  11.7285 -4.14847 -15.1295
Spine1  -3.71191 -7.02771 8.23792
HEad  -13.082 35.9517 -2.81612
LeftShoulder1  0.607126 9.78023 20.6375
LeftArm  -77.6884 -53.2932 -4.08681
LeftForeArm  -43.6495 -48.8572 -15.2311
LeftHand  -0.17581 4.37234 19.1256
RightShoulder  0.155565 0.0193323 -4.64981
RightArm  6.02473 -1.9536 34.716
RightForeArm  45.3648 78.1239 89.2669
RightHand  -0.307285 -2.3023 -11.284
LeftUpLeg  6.49258 7.28691 -1.47819
LeftLeg  15.1712 9.787 1.97089
LeftFoot  -3.15782 0.7582 -10.3144
LeftToes  -3.91115e-011 -2.2622e-010 9.51032e-012
111
root  -6.19278 40.1882 -4.25486 151.809 82.5705 154.024
RightUpLeg  -10.7708 -7.42153 -7.67605
RightLeg  9.59351 4.78117 0.659517
RightFoot  11.9401 -2.99626 14.8694
RightToes  -5.8209e-011 0 -3.6325e-017
Spine  11.675 -4.46656 -14.7139
Spine1  -3.40552 -7.26288 7.78363
HEad  -11.8298 36.228 -2.57356
LeftShoulder1  0.497938 9.03342 19.884
LeftArm  -72.5403 -49.4345 -6.61332
LeftForeArm  -40.1754 -53.7286 -17.9069
LeftHand  -0.153659 4.48612 18.7233
RightShoulder  0.113232 -0.701141 -5.10054
RightArm  4.64078 -1.68328 31.8537
RightForeArm  51.6105 78.0431 96.0406
RightHand  -0.293936 -2.41925 -11.183
LeftUpLeg  5.8676 9.45756 -1.56942
LeftLeg  16.9012 7.65784 2.21634
LeftFoot  -3.62085 0.733532 -10.5286
LeftToes  -3.91115e-011 -2.2622e-010 9.51032e-012
112
root  -6.16387 40.0627 -4.2371 148.813 82.2721 150.967
RightUpLeg  -11.3021 -7.20694 -8.04671
RightLeg  10.8878 4.43955 0.53679
RightFoot  10.1047 -2.62898 14.186
RightToes  -5.8209e-011 0 -3.6325e-017
Spine  11.6466 -4.76229 -14.7055
Spine1  -2.99039 -7.58406 7.71038
HEad  -10.2558 36.5421 -2.39668
LeftShoulder1  0.370738 8.14395 18.75
LeftArm  -66.4997 -44.9089 -9.17794
LeftForeArm  -35.3031 -58.8336 -21.54
LeftHand  -0.159023 4.44895 18.6332
RightShoulder  0.0768524 -1.47254 -5.42225
RightArm  3.34934 -1.3128 28.9958
RightForeArm  55.1738 77.8985 100.26
RightHand  -0.272345 -2.57223 -10.8757
LeftUpLeg  5.0106 11.5347 -1.63355
LeftLeg  18.7287 5.30922 2.21318
LeftFoot  -4.13748 0.714899 -10.9402
LeftToes  -3.91115e-011 -2.2622e-010 9.51032e-012
113
root  -6.17921 39.9142 -4.20924 144.64 82.2719 146.778
RightUpLeg  -12.0644 -6.62129 -8.37421
RightLeg  12.4197 4.04626 0.458262
RightFoot  8.29805 -2.30601 13.6004
RightToes  -5.8209e-011 0 -3.6325e-017
Spine  11.7951 -4.96161 -14.8029
Spine1  -2.5458 -7.84206 7.63994
HEad  -8.32442 36.9596 -2.11765
LeftShoulder1  0.267778 7.49459 17.3076
LeftArm  -59.9186 -39.8609 -11.2793
LeftForeArm  -27.1062 -63.5166 -25.9842
LeftHand  -0.356183 3.26783 19.1433
RightShoulder  0.0491182 -2.1921 -5.51873
RightArm  2.01891 -0.904509 26.2058
RightForeArm  56.6891 77.8007 102.255
RightHand  -0.259025 -2.63961 -10.5666
LeftUpLeg  4.37558 12.5865 -1.70963
LeftLeg  20.2581 3.61958 1.82887
LeftFoot  -4.88821 0.675852 -11.4438
LeftToes  -3.91115e-011 -2.2622e-010 9.51032e-012
114
root  -6.25075 39.7302 -4.2021 141.178 82.5729 143.308
RightUpLeg  -12.9955 -6.14154 -8.54476
RightLeg  14.0183 3.96378 0.629833
RightFoot  6.53916 -2.10234 13.5984
RightToes  -5.8209e-011 0 -3.6325e-017
Spine  12.1061 -5.18862 -14.5103
Spine1  -2.07979 -8.08085 7.37931
HEad  -6.17871 37.4661 -1.71407
LeftShoulder1  0.181098 6.96469 15.6214
LeftArm  -53.4637 -34.2945 -12.6065
LeftForeArm  -18.2117 -67.6134 -31.5219
LeftHand  -0.499572 2.43375 19.4604
RightShoulder  0.0293723 -2.75792 -5.41672
RightArm  0.367806 -0.640689 23.369
RightForeArm  57.8546 77.7563 103.279
RightHand  -0.23054 -2.76353 -9.74889
LeftUpLeg  3.75299 12.9989 -1.66797
LeftLeg  21.7518 2.34591 1.36633
LeftFoot  -6.23398 0.561338 -11.7141
LeftToes  -3.91115e-011 -2.2622e-010 9.51032e-012
115
root  -6.40002 39.497 -4.22209 140.531 82.9929 142.505
RightUpLeg  -14.28 -6.2398 -8.39881
RightLeg  15.7519 4.22908 1.02261
RightFoot  4.85765 -1.94742 13.8574
RightToes  -5.8209e-011 0 -3.6325e-017
Spine  12.5398 -5.46311 -13.956
Spine1  -1.55361 -8.40479 7.35539
HEad  -4.17144 37.7903 -1.46234
LeftShoulder1  0.102486 6.3537 13.7572
LeftArm  -47.499 -28.284 -13.2679
LeftForeArm  -9.85029 -71.1804 -38.8759
LeftHand  -0.428352 2.69467 18.1826
RightShoulder  0.0106756 -3.26986 -5.27564
RightArm  -1.93709 -0.644703 20.4111
RightForeArm  59.8151 77.744 104.171
RightHand  -0.174444 -3.03705 -7.99869
LeftUpLeg  2.46918 12.9984 -1.56075
LeftLeg  23.9527 1.70991 1.17227
LeftFoot  -8.13409 0.377161 -11.7011
LeftToes  -3.91115e-011 -2.2622e-010 9.51032e-012
116
root  -6.64233 39.2106 -4.24486 142.424 83.4213 144.228
RightUpLeg  -15.9417 -6.52948 -7.89934
RightLeg  17.8869 4.29722 1.33079
RightFoot  3.31715 -1.73063 13.5683
RightToes  -5.8209e-011 0 -3.6325e-017
Spine  13.2885 -5.55489 -13.7426
Spine1  -0.87074 -8.78166 8.11311
HEad  -2.671 37.8948 -1.66073
LeftShoulder1  0.0412466 5.76375 11.7523
LeftArm  -41.8905 -22.1634 -13.646
LeftForeArm  0.723962 -74.1508 -48.5518
LeftHand  -0.374364 2.76209 16.3496
RightShoulder  -0.0140301 -3.90263 -5.16289
RightArm  -5.13973 -0.971855 17.5346
RightForeArm  61.927 77.7753 104.594
RightHand  -0.116976 -3.34401 -5.82661
LeftUpLeg  0.486629 12.7652 -1.43134
LeftLeg  27.0824 1.81547 1.35718
LeftFoot  -10.2156 0.175043 -11.5912
LeftToes  -3.91115e-011 -2.2622e-010 9.51032e-012
117
root  -6.97112 38.8734 -4.2542 146.345 83.7695 148.259
RightUpLeg  -17.7088 -6.59328 -7.14995
RightLeg  20.5182 3.75893 1.34246
RightFoot  1.89822 -1.45065 12.5618
RightToes  -5.8209e-011 0 -3.6325e-017
Spine  14.4828 -5.32476 -14.069
Spine1  0.136691 -9.15096 9.64208
HEad  -1.59634 37.9178 -2.26175
LeftShoulder1  -0.000416092 5.29388 9.63901
LeftArm  -36.505 -16.2379 -14.1678
LeftForeArm  15.7274 -76.4409 -61.1154
LeftHand  -0.438041 2.22612 15.9094
RightShoulder  -0.0440959 -4.62432 -4.99974
RightArm  -9.37302 -1.69189 15.1269
RightForeArm  63.0334 77.8555 104.088
RightHand  -0.0765918 -3.65172 -3.98908
LeftUpLeg  -1.56706 12.4105 -1.18376
LeftLeg  30.6202 2.2497 1.79323
LeftFoot  -12.3947 -0.0296289 -11.2947
LeftToes  -3.91115e-011 -2.2622e-010 9.51032e-012
